<?xml version="1.0" standalone="no"?>
<!DOCTYPE svg PUBLIC "-//W3C//DTD SVG 20010904//EN"
 "http://www.w3.org/TR/2001/REC-SVG-20010904/DTD/svg10.dtd">
<svg version="1.0" xmlns="http://www.w3.org/2000/svg"
 width="512.000000pt" height="512.000000pt" viewBox="0 0 512.000000 512.000000"
 preserveAspectRatio="xMidYMid meet">

<g transform="translate(0.000000,512.000000) scale(0.100000,-0.100000)"
fill="#000000" stroke="none">
<path d="M2315 5109 c-55 -5 -160 -20 -233 -34 -371 -71 -567 -211 -567 -405
0 -192 196 -333 562 -404 311 -60 655 -60 966 0 366 71 562 212 562 404 0 113
-62 203 -194 279 -224 131 -672 196 -1096 160z m580 -313 c168 -27 330 -75
379 -111 20 -15 20 -15 0 -30 -29 -21 -148 -64 -239 -85 -156 -35 -257 -45
-475 -45 -218 0 -319 10 -475 45 -91 21 -210 64 -239 85 -20 15 -20 15 0 30
53 40 249 94 409 114 50 6 104 13 120 15 64 9 434 -4 520 -18z"/>
<path d="M2465 3914 c-11 -2 -44 -9 -73 -15 -123 -25 -249 -94 -350 -192 -128
-125 -194 -255 -227 -449 -3 -21 -7 -38 -9 -38 -1 0 -31 11 -65 25 -34 14 -99
35 -144 47 -80 21 -102 22 -779 25 -688 4 -697 4 -737 -17 -77 -39 -95 -113
-67 -264 30 -152 94 -273 207 -387 75 -77 76 -78 83 -141 19 -190 109 -369
245 -489 58 -51 59 -52 65 -118 31 -312 252 -571 561 -658 28 -8 107 -17 178
-20 94 -4 127 -9 127 -19 0 -35 -55 -323 -81 -428 -16 -65 -66 -228 -109 -362
-44 -134 -80 -253 -80 -265 0 -44 40 -109 81 -129 37 -20 65 -20 1269 -20
1204 0 1232 0 1269 20 41 20 81 85 81 129 0 12 -36 131 -80 265 -43 134 -93
297 -109 362 -26 105 -81 393 -81 428 0 10 33 15 128 19 219 10 363 69 510
211 130 125 209 286 228 466 6 64 8 66 79 140 84 87 131 158 169 253 27 67 56
195 56 243 0 17 25 49 83 107 118 119 183 237 213 393 28 151 10 225 -67 264
-40 21 -49 21 -737 17 -677 -3 -699 -4 -779 -25 -45 -12 -110 -33 -144 -47
-34 -14 -64 -25 -65 -25 -2 0 -6 17 -9 38 -33 194 -99 324 -227 449 -97 94
-197 151 -333 190 -50 14 -243 26 -280 17z m176 -304 c235 -45 399 -275 361
-506 -32 -196 -180 -344 -376 -376 -289 -48 -556 219 -508 508 42 252 277 420
523 374z m-1096 -613 c33 -9 103 -38 154 -63 78 -39 110 -62 181 -133 48 -47
103 -114 123 -149 21 -35 37 -65 37 -66 0 -2 -30 -23 -67 -47 -144 -94 -301
-283 -371 -444 -65 -151 -92 -288 -92 -464 l0 -111 -95 0 c-161 0 -262 34
-361 123 -41 37 -114 146 -114 171 0 3 45 6 101 6 72 0 111 5 135 16 99 47
111 192 21 256 -24 17 -51 23 -131 29 -160 11 -250 52 -348 156 -39 42 -88
119 -88 138 0 3 104 5 230 5 212 0 234 2 270 20 45 23 80 80 80 130 0 50 -35
107 -80 130 -35 18 -59 20 -224 20 -102 0 -209 5 -238 11 -81 17 -153 55 -219
117 -53 48 -119 140 -119 165 0 4 260 6 578 5 508 -3 584 -6 637 -21z m3245
15 c0 -20 -80 -130 -123 -169 -55 -51 -143 -97 -215 -112 -29 -6 -136 -11
-238 -11 -215 0 -248 -9 -284 -80 -26 -51 -25 -93 2 -141 40 -72 70 -79 326
-79 122 0 222 -2 222 -5 0 -23 -62 -118 -104 -161 -88 -87 -205 -134 -337
-134 -107 0 -168 -49 -176 -139 -6 -63 20 -109 77 -138 37 -19 60 -23 142 -23
54 0 98 -2 98 -5 0 -23 -62 -118 -104 -161 -96 -95 -204 -134 -371 -134 l-95
0 0 111 c0 176 -27 313 -92 464 -70 161 -227 350 -371 444 -37 24 -67 45 -67
47 0 1 16 31 37 66 20 35 73 99 117 144 82 82 157 132 256 172 117 47 160 50
748 51 303 1 552 -3 552 -7z m-2099 -607 c83 -14 153 -39 238 -84 l44 -23
-206 -206 -207 -207 -206 206 -206 206 43 24 c156 87 323 115 500 84z m-281
-1050 c0 -138 -5 -288 -10 -334 -34 -270 -196 -535 -415 -681 l-60 -40 -179 0
c-166 0 -178 1 -171 18 3 9 27 82 51 162 110 353 168 692 180 1060 8 263 28
357 103 499 l23 44 239 -239 239 -239 0 -250z m802 683 c74 -140 94 -236 102
-498 12 -368 70 -707 180 -1060 24 -80 48 -153 51 -162 7 -17 -5 -18 -171 -18
l-179 0 -60 40 c-219 146 -381 411 -415 681 -5 46 -10 196 -10 334 l0 250 237
237 c131 131 239 238 240 238 2 0 13 -19 25 -42z m-613 -1560 c16 -29 51 -80
76 -113 l47 -60 -81 -3 c-45 -2 -117 -2 -162 0 l-81 3 47 60 c25 33 60 84 76
113 17 28 34 52 39 52 5 0 22 -24 39 -52z"/>
</g>
</svg>
