<?xml version="1.0" standalone="no"?>
<!DOCTYPE svg PUBLIC "-//W3C//DTD SVG 20010904//EN"
 "http://www.w3.org/TR/2001/REC-SVG-20010904/DTD/svg10.dtd">
<svg version="1.0" xmlns="http://www.w3.org/2000/svg"
 width="512.000000pt" height="512.000000pt" viewBox="0 0 512.000000 512.000000"
 preserveAspectRatio="xMidYMid meet">

<g transform="translate(0.000000,512.000000) scale(0.100000,-0.100000)"
fill="#000000" stroke="none">
<path d="M2064 4464 c-361 -60 -667 -288 -832 -619 -122 -245 -143 -558 -55
-830 69 -215 223 -428 407 -561 l29 -21 -99 -53 c-420 -224 -711 -588 -824
-1030 -25 -97 -50 -265 -50 -337 l0 -53 159 0 158 0 7 87 c9 113 30 216 66
325 217 652 932 1016 1586 807 78 -25 204 -78 222 -94 1 -1 -26 -45 -61 -98
-186 -278 -257 -631 -192 -954 105 -511 495 -901 1015 -1010 117 -24 363 -24
480 0 255 54 464 164 646 339 192 186 314 409 371 678 24 117 24 363 0 480
-54 255 -164 464 -339 646 -419 434 -1064 517 -1584 204 l-86 -52 -102 52
c-55 29 -104 56 -108 59 -4 3 29 35 73 69 157 125 287 316 352 517 73 224 73
458 1 687 -106 335 -387 616 -722 722 -172 54 -353 68 -518 40z m323 -319
c327 -62 576 -311 638 -638 82 -433 -203 -849 -638 -932 -433 -82 -849 203
-932 638 -104 550 382 1036 932 932z m1608 -1919 c272 -49 495 -193 640 -411
259 -390 206 -899 -127 -1221 -382 -371 -986 -363 -1354 18 -371 382 -363 986
18 1354 221 214 531 312 823 260z"/>
<path d="M3357 1762 c-59 -59 -107 -112 -107 -117 0 -5 80 -90 177 -187 l178
-178 -178 -178 c-97 -97 -177 -182 -177 -187 0 -13 212 -225 225 -225 5 0 90
80 187 177 l178 178 178 -178 c97 -97 182 -177 187 -177 13 0 225 212 225 225
0 5 -80 90 -177 187 l-178 178 178 178 c97 97 177 182 177 187 0 13 -212 225
-225 225 -5 0 -90 -80 -187 -177 l-178 -178 -178 178 c-97 97 -182 177 -187
177 -6 0 -59 -48 -118 -108z"/>
</g>
</svg>
