<?xml version="1.0" standalone="no"?>
<!DOCTYPE svg PUBLIC "-//W3C//DTD SVG 20010904//EN"
 "http://www.w3.org/TR/2001/REC-SVG-20010904/DTD/svg10.dtd">
<svg version="1.0" xmlns="http://www.w3.org/2000/svg"
 width="512.000000pt" height="512.000000pt" viewBox="0 0 512.000000 512.000000"
 preserveAspectRatio="xMidYMid meet">

<g transform="translate(0.000000,512.000000) scale(0.100000,-0.100000)"
fill="#000000" stroke="none">
<path d="M2311 5110 c-401 -39 -686 -158 -773 -322 -31 -59 -32 -175 -1 -233
80 -152 303 -257 658 -311 166 -25 559 -26 728 -1 354 53 579 159 660 312 30
57 30 174 0 230 -82 154 -304 259 -654 310 -126 19 -488 27 -618 15z m597
-315 c163 -25 382 -97 382 -125 0 -14 -100 -57 -193 -84 -259 -75 -669 -86
-970 -25 -102 20 -248 70 -281 94 -20 15 -20 15 0 30 58 44 290 105 474 125
122 13 466 4 588 -15z"/>
<path d="M1139 4205 c-129 -26 -241 -90 -367 -209 -187 -177 -318 -377 -390
-593 -52 -153 -66 -249 -66 -433 0 -158 4 -184 72 -590 91 -543 100 -611 112
-836 22 -395 -30 -839 -142 -1212 -53 -175 -55 -199 -29 -250 41 -80 115 -97
296 -67 157 25 276 72 413 161 116 76 241 205 316 327 58 94 72 107 123 107
48 0 206 60 276 104 88 54 200 169 252 257 20 34 49 99 64 143 34 103 34 102
78 111 103 19 272 122 361 220 l52 57 52 -57 c87 -95 211 -174 333 -211 33
-10 65 -21 70 -25 6 -5 17 -32 24 -61 8 -29 29 -84 48 -123 109 -218 301 -365
540 -411 41 -8 76 -14 77 -14 1 0 29 -44 62 -97 76 -125 216 -267 338 -342
148 -92 314 -145 491 -157 80 -6 95 -4 133 15 52 26 86 86 80 140 -3 20 -23
98 -46 174 -112 375 -164 821 -142 1215 12 220 21 283 111 832 39 234 73 472
76 530 17 307 -82 625 -274 880 -71 94 -218 246 -289 296 -276 197 -639 172
-875 -61 -79 -78 -123 -146 -168 -259 -53 -132 -84 -181 -166 -262 -125 -124
-279 -184 -475 -184 -196 0 -350 60 -475 184 -82 81 -111 127 -167 263 -47
116 -88 180 -161 252 -167 165 -389 232 -618 186z m255 -305 c113 -35 199
-119 245 -242 94 -249 253 -429 476 -539 89 -43 230 -88 278 -89 16 0 17 -33
17 -562 0 -600 -1 -612 -50 -714 -30 -62 -122 -159 -184 -195 -28 -16 -54 -29
-58 -29 -5 0 -8 173 -8 385 0 367 -1 388 -20 425 -23 45 -80 80 -130 80 -50 0
-107 -35 -130 -80 -19 -38 -20 -58 -20 -542 0 -537 -2 -553 -51 -654 -35 -69
-109 -146 -177 -182 -33 -18 -64 -32 -68 -32 -5 0 -8 238 -6 530 2 516 2 531
-18 570 -23 45 -80 80 -130 80 -45 0 -107 -35 -127 -73 -16 -29 -18 -80 -23
-577 l-5 -545 -33 -95 c-75 -214 -231 -383 -432 -464 -35 -14 -65 -25 -66 -23
-1 1 9 47 22 102 85 349 123 751 104 1109 -12 244 -24 334 -112 856 -68 403
-72 433 -71 580 0 134 4 168 26 252 30 113 86 238 148 329 56 83 241 274 298
307 92 54 197 65 305 32z m2610 -19 c47 -23 89 -58 173 -144 164 -168 248
-309 300 -506 22 -83 26 -117 26 -251 1 -148 -3 -177 -75 -610 -88 -523 -95
-575 -109 -825 -19 -354 26 -811 111 -1135 10 -41 18 -76 16 -77 -5 -6 -111
41 -170 75 -82 48 -198 162 -251 246 -24 39 -59 114 -77 166 l-33 95 -5 545
c-5 497 -7 548 -23 577 -20 38 -82 73 -127 73 -50 0 -107 -35 -130 -80 -20
-39 -20 -54 -18 -570 2 -292 -1 -530 -6 -530 -4 0 -35 14 -68 32 -68 36 -142
113 -177 182 -49 101 -51 117 -51 654 0 484 -1 504 -20 542 -23 45 -80 80
-130 80 -50 0 -107 -35 -130 -80 -19 -37 -20 -58 -20 -425 0 -212 -3 -385 -7
-385 -5 0 -31 13 -59 29 -62 36 -154 133 -184 195 -49 102 -50 114 -50 712 l0
562 47 7 c190 28 411 155 544 312 72 84 111 149 160 265 54 126 58 134 102
184 107 122 294 158 441 85z"/>
</g>
</svg>
