<?xml version="1.0" standalone="no"?>
<!DOCTYPE svg PUBLIC "-//W3C//DTD SVG 20010904//EN"
 "http://www.w3.org/TR/2001/REC-SVG-20010904/DTD/svg10.dtd">
<svg version="1.0" xmlns="http://www.w3.org/2000/svg"
 width="600.000000pt" height="600.000000pt" viewBox="0 0 600.000000 600.000000"
 preserveAspectRatio="xMidYMid meet">

<g transform="translate(0.000000,600.000000) scale(0.100000,-0.100000)"
fill="#000000" stroke="none">
<path d="M2270 5415 c-268 -37 -480 -118 -652 -248 -169 -127 -284 -301 -338
-510 l-18 -73 64 -1158 64 -1157 -39 -52 c-22 -29 -92 -135 -157 -237 -64
-102 -128 -201 -143 -220 -155 -211 -327 -356 -563 -475 -58 -30 -114 -65
-122 -77 -19 -26 -21 -86 -5 -121 53 -116 496 -135 758 -33 99 39 150 73 238
159 l82 79 7 -38 c4 -22 -1 -139 -13 -269 -17 -204 -18 -232 -5 -247 8 -10 19
-18 25 -18 5 0 22 -9 37 -20 58 -42 141 -53 325 -46 215 8 285 19 361 56 98
48 98 48 84 189 -6 65 -9 129 -5 141 4 12 23 40 42 61 58 64 88 69 453 69 357
0 391 -5 453 -65 52 -50 59 -87 45 -229 l-11 -120 29 -23 c79 -65 153 -83 342
-83 247 0 369 24 450 88 l38 30 -18 221 c-18 212 -18 232 0 555 10 185 21 338
24 341 3 3 34 1 69 -5 123 -20 288 -23 379 -6 181 33 319 140 412 321 58 114
78 170 194 550 53 170 118 380 146 465 90 277 189 448 308 533 l59 42 0 96 1
97 -42 10 c-80 20 -233 34 -303 28 -185 -17 -331 -80 -441 -190 -87 -88 -128
-168 -185 -369 -57 -201 -95 -274 -194 -372 -63 -63 -100 -90 -165 -123 -75
-36 -176 -69 -186 -59 -2 1 17 381 42 842 45 813 45 842 29 905 -19 75 -89
228 -134 293 -156 228 -435 387 -802 458 -104 21 -149 23 -519 25 -297 2 -430
-1 -500 -11z m600 -535 c413 -66 712 -414 712 -830 0 -378 -238 -694 -609
-807 -78 -23 -104 -26 -233 -26 -129 0 -155 3 -233 26 -204 63 -365 182 -477
353 -91 140 -133 282 -133 454 0 172 42 314 133 454 182 279 514 427 840 376z
m2544 -1061 c83 -65 -50 -255 -173 -247 -124 8 -93 167 48 240 64 33 90 35
125 7z m-179 -404 c33 -32 31 -57 -4 -97 -26 -29 -35 -33 -81 -33 -44 0 -55 4
-76 28 -33 38 -31 70 7 101 43 36 119 37 154 1z m-106 -288 c37 -31 50 -109
30 -182 -27 -97 -129 -139 -183 -74 -58 69 -16 234 69 270 23 9 63 3 84 -14z
m-148 -436 c77 -77 -2 -271 -110 -271 -109 0 -123 172 -20 264 50 46 89 48
130 7z m-200 -340 c24 -25 29 -37 29 -80 0 -56 -18 -83 -68 -102 -80 -31 -166
68 -132 152 17 41 47 59 98 59 35 0 49 -6 73 -29z m-301 -163 c62 -31 77 -66
53 -116 -60 -123 -343 -120 -343 4 0 102 176 169 290 112z m-3048 -670 c2 -57
2 -105 1 -107 -2 -3 -18 3 -37 11 -47 23 -72 78 -57 129 12 40 43 69 72 69 15
0 18 -15 21 -102z m-167 -143 c121 -50 -2 -205 -162 -205 -162 0 -143 146 26
206 48 17 94 17 136 -1z m-386 -189 c44 -40 13 -105 -60 -126 -80 -23 -178 0
-196 46 -10 25 14 62 54 84 51 27 170 25 202 -4z"/>
<path d="M2627 4534 c-151 -36 -270 -131 -340 -272 l-42 -85 0 -127 0 -127 42
-85 c72 -144 196 -241 351 -274 84 -17 120 -17 204 0 185 40 337 182 384 360
18 65 18 187 0 252 -68 256 -342 420 -599 358z m417 -201 c92 -66 104 -197 24
-269 -62 -57 -141 -69 -216 -33 -106 52 -133 196 -50 276 72 70 166 80 242 26z
m-46 -515 c46 -44 9 -128 -57 -128 -42 0 -84 39 -84 78 0 74 83 104 141 50z"/>
</g>
</svg>
