<?xml version="1.0" standalone="no"?>
<!DOCTYPE svg PUBLIC "-//W3C//DTD SVG 20010904//EN"
 "http://www.w3.org/TR/2001/REC-SVG-20010904/DTD/svg10.dtd">
<svg version="1.0" xmlns="http://www.w3.org/2000/svg"
 width="512.000000pt" height="512.000000pt" viewBox="0 0 512.000000 512.000000"
 preserveAspectRatio="xMidYMid meet">

<g transform="translate(0.000000,512.000000) scale(0.100000,-0.100000)"
fill="#000000" stroke="none">
<path d="M63 4763 c-13 -2 -32 -16 -43 -30 -20 -26 -20 -34 -20 -2174 l0
-2148 24 -28 24 -28 2512 0 2512 0 24 28 24 28 0 1443 c0 1407 0 1444 -19
1467 l-19 24 -599 5 -598 5 -5 333 -5 334 -24 19 c-22 18 -52 19 -922 19
l-899 0 0 324 0 325 -24 28 -24 28 -949 1 c-521 1 -958 -1 -970 -3z m557 -438
l0 -265 -220 0 -220 0 0 265 0 265 220 0 220 0 0 -265z m1230 0 l0 -265 -530
0 -530 0 0 265 0 265 530 0 530 0 0 -265z m-612 -707 l-3 -263 -527 -3 -528
-2 0 265 0 265 530 0 530 0 -2 -262z m1232 -3 l0 -265 -527 2 -528 3 -3 263
-2 262 530 0 530 0 0 -265z m1238 3 l-3 -263 -527 -3 -528 -2 0 265 0 265 530
0 530 0 -2 -262z m-3088 -703 l0 -265 -220 0 -220 0 0 265 0 265 220 0 220 0
0 -265z m1230 0 l0 -265 -530 0 -530 0 0 258 c0 142 3 262 7 265 3 4 242 7
530 7 l523 0 0 -265z m1240 0 l0 -265 -530 0 -530 0 0 265 0 265 530 0 530 0
0 -265z m1238 -2 l2 -263 -530 0 -530 0 0 265 0 265 528 -2 527 -3 3 -262z
m612 2 l0 -265 -220 0 -220 0 0 265 0 265 220 0 220 0 0 -265z m-3702 -707
l-3 -263 -527 -3 -528 -2 0 265 0 265 530 0 530 0 -2 -262z m1232 -3 l0 -265
-530 0 -530 0 0 265 0 265 530 0 530 0 0 -265z m1240 0 l0 -265 -530 0 -530 0
0 265 0 265 530 0 530 0 0 -265z m1230 0 l0 -265 -527 2 -528 3 -3 263 -2 262
530 0 530 0 0 -265z m-4322 -702 l2 -263 -220 0 -220 0 0 265 0 265 218 -2
217 -3 3 -262z m1232 2 l0 -265 -530 0 -530 0 0 258 c0 142 3 262 7 265 3 4
242 7 530 7 l523 0 0 -265z m1240 0 l0 -265 -530 0 -530 0 0 265 0 265 530 0
530 0 0 -265z m1238 -2 l2 -263 -530 0 -530 0 0 265 0 265 528 -2 527 -3 3
-262z m612 2 l0 -265 -220 0 -220 0 0 258 c0 142 3 262 7 265 3 4 102 7 220 7
l213 0 0 -265z m-3700 -710 l0 -265 -530 0 -530 0 0 265 0 265 530 0 530 0 0
-265z m1230 0 l0 -265 -530 0 -530 0 0 265 0 265 530 0 530 0 0 -265z m1240 0
l0 -265 -530 0 -530 0 0 265 0 265 530 0 530 0 0 -265z m1230 0 l0 -265 -530
0 -530 0 0 265 0 265 530 0 530 0 0 -265z"/>
</g>
</svg>
